<mxfile host="app.diagrams.net" modified="2023-06-27T02:29:06.646Z" agent="Mozilla/5.0 (Windows NT 10.0; Win64; x64) AppleWebKit/537.36 (KHTML, like Gecko) Chrome/114.0.0.0 Safari/537.36" version="21.5.0" etag="TA4-COSnrT3jzio0z8Ek" type="github">
  <diagram name="第 1 页" id="2ZSI1x4kSx3g8-hEP3sU">
    <mxGraphModel>
      <root>
        <mxCell id="0" />
        <mxCell id="1" parent="0" />
      </root>
    </mxGraphModel>
  </diagram>
</mxfile>
